<svg xmlns="http://www.w3.org/2000/svg" id="whale-ico" viewBox="1 1 43 43" width="100%" height="100%">
            <path class="st0" d="M22,0C9.8,0,0,9.8,0,22s9.8,22,22,22s22-9.8,22-22S34.2,0,22,0z M20.6,35.2
	c-5.7-0.4-11.2-4.8-11.9-10.4C8.4,22.2,8.9,21.1,9,20c0.2-2-1.6-2.5-1.6-2.5c1.1-0.6,2.5-0.5,3.4,1.1c1.4-0.5,3.1,0,3.6,0.8
	c0.6,0.9,0.4,1.8,0.4,1.8c-0.7-0.9-1.7-1.4-3.1-0.6c-2.4,1.9-0.5,5.9,1.6,7.3c3.3,2.1,7.4,1,8.9-0.2c2.2-1.6,2.9-3.4,3.1-7
	c0.3-3.6,2.3-6,5.7-6.1c3.2-0.1,6,2.7,5.8,6.3C36.5,28.3,30.6,36,20.6,35.2z"></path>
</svg>